<svg xmlns="http://www.w3.org/2000/svg" viewBox="0 0 800 600" font-family="monospace">
<defs><pattern id="h" width="8" height="8" patternUnits="userSpaceOnUse" patternTransform="rotate(45)"><line x1="0" y1="0" x2="0" y2="8" stroke="#141414" stroke-width="1"/></pattern><pattern id="i" width="12" height="12" patternUnits="userSpaceOnUse"><path d="M0 6 Q3 0 6 6 T12 6" fill="none" stroke="#141414" stroke-width="0.8"/></pattern></defs>
<rect width="800" height="600" fill="#fff"/>
<rect x="20" y="20" width="760" height="560" fill="none" stroke="#141414" stroke-width="2"/>

  <rect x="80" y="260" width="520" height="80" fill="url(#h)" stroke="#141414" stroke-width="2"/>
  <rect x="600" y="200" width="20" height="220" fill="#141414"/>
  <rect x="640" y="160" width="40" height="300" fill="none" stroke="#141414" stroke-width="2"/>
  <path d="M600 340 L640 340" stroke="#141414" stroke-width="2"/>
  <text x="90" y="250" font-size="11">PT SLAB · FIRESTOP AT EDGE</text>
  <g stroke="#141414" stroke-width="1"><line x1="80" y1="400" x2="600" y2="400"/><line x1="80" y1="394" x2="80" y2="406"/><line x1="600" y1="394" x2="600" y2="406"/></g><text x="340" y="392" font-size="11" text-anchor="middle">7500 GRID</text>
<rect x="540" y="520" width="240" height="60" fill="#fff" stroke="#141414" stroke-width="1.5"/>
<text x="552" y="544" font-size="14" fill="#141414">SLAB EDGE</text>
<text x="552" y="566" font-size="11" fill="#6b6b6b">DETAIL 03 · 1:10 · PLACEHOLDER</text>
</svg>
