<svg xmlns="http://www.w3.org/2000/svg" width="2000" height="1700" viewBox="0 0 2000 1700" font-family="monospace">
<defs><pattern id="h" width="14" height="14" patternUnits="userSpaceOnUse" patternTransform="rotate(45)"><line x1="0" y1="0" x2="0" y2="14" stroke="#141414" stroke-width="3"/></pattern></defs>
<rect width="2000" height="1700" fill="#ffffff" fill-opacity="0.82"/>
<rect x="4" y="4" width="1992" height="1692" fill="none" stroke="#141414" stroke-width="6"/>
<line x1="0" y1="1500" x2="2000" y2="1500" stroke="#141414" stroke-width="5"/><rect x="88" y="100" width="25" height="1400" fill="#fff" stroke="#141414" stroke-width="3"/><rect x="238" y="100" width="25" height="1400" fill="#fff" stroke="#141414" stroke-width="3"/><rect x="388" y="100" width="25" height="1400" fill="#fff" stroke="#141414" stroke-width="3"/><rect x="538" y="100" width="25" height="1400" fill="#fff" stroke="#141414" stroke-width="3"/><rect x="688" y="100" width="25" height="1400" fill="#fff" stroke="#141414" stroke-width="3"/><rect x="838" y="100" width="25" height="1400" fill="#fff" stroke="#141414" stroke-width="3"/><rect x="988" y="100" width="25" height="1400" fill="#fff" stroke="#141414" stroke-width="3"/><rect x="1138" y="100" width="25" height="1400" fill="#fff" stroke="#141414" stroke-width="3"/><rect x="1288" y="100" width="25" height="1400" fill="#fff" stroke="#141414" stroke-width="3"/><rect x="1438" y="100" width="25" height="1400" fill="#fff" stroke="#141414" stroke-width="3"/><rect x="1588" y="100" width="25" height="1400" fill="#fff" stroke="#141414" stroke-width="3"/><rect x="1738" y="100" width="25" height="1400" fill="#fff" stroke="#141414" stroke-width="3"/><rect x="1888" y="100" width="25" height="1400" fill="#fff" stroke="#141414" stroke-width="3"/><rect x="100" y="0" width="1800" height="100" fill="#fff" stroke="#141414" stroke-width="4"/><line x1="100" y1="1150" x2="1900" y2="1150" stroke="#a3a3a3" stroke-width="2"/><line x1="100" y1="800" x2="1900" y2="800" stroke="#a3a3a3" stroke-width="2"/><line x1="100" y1="450" x2="1900" y2="450" stroke="#a3a3a3" stroke-width="2"/>
<g transform="translate(1360,1550)"><rect width="620" height="130" fill="#fff" stroke="#141414" stroke-width="4"/><text x="24" y="58" font-size="44" fill="#141414">SOUTH ELEVATION</text><text x="24" y="104" font-size="26" fill="#6b6b6b">1:100 · PLACEHOLDER</text></g>
</svg>
